<svg width="200" height="200" viewBox="0 0 200 200" fill="none" xmlns="http://www.w3.org/2000/svg">
<rect width="200" height="200" fill="white"/>
<path d="M103.997 99.998C103.997 74.594 83.403 54 57.999 54H35C35 79.404 55.594 99.998 80.998 99.998H103.997Z" fill="url(#paint0_linear)"/>
<path d="M103.997 99.998C103.997 125.402 83.403 145.996 57.999 145.996H48.7994C48.7994 120.592 69.3934 99.9979 94.7974 99.9979L103.997 99.998Z" fill="url(#paint1_linear)"/>
<path d="M96.6372 99.998C96.6372 74.594 117.231 54 142.635 54H165.634C165.634 79.404 145.04 99.998 119.636 99.998H96.6372Z" fill="url(#paint2_linear)"/>
<path d="M96.6372 99.998C96.6372 125.402 117.231 145.996 142.635 145.996H151.835C151.835 120.592 131.241 99.998 105.837 99.998L96.6372 99.998Z" fill="url(#paint3_linear)"/>
<path d="M100.317 81.9402C102.686 87.4842 103.997 93.5879 103.997 99.9978C103.997 106.408 102.686 112.512 100.317 118.055C97.9483 112.512 96.6372 106.408 96.6372 99.9978C96.6372 93.5879 97.9483 87.4842 100.317 81.9402Z" fill="#0088CC"/>
<defs>
<linearGradient id="paint0_linear" x1="104" y1="146" x2="35" y2="54" gradientUnits="userSpaceOnUse">
<stop stop-color="#001B33"/>
<stop offset="1" stop-color="#006DCC"/>
</linearGradient>
<linearGradient id="paint1_linear" x1="104" y1="146" x2="35" y2="54" gradientUnits="userSpaceOnUse">
<stop stop-color="#001B33"/>
<stop offset="1" stop-color="#006DCC"/>
</linearGradient>
<linearGradient id="paint2_linear" x1="97" y1="146" x2="166" y2="54" gradientUnits="userSpaceOnUse">
<stop stop-color="#0089D6"/>
<stop offset="1" stop-color="#66CCFF"/>
</linearGradient>
<linearGradient id="paint3_linear" x1="97" y1="146" x2="166" y2="54" gradientUnits="userSpaceOnUse">
<stop stop-color="#0089D6"/>
<stop offset="1" stop-color="#66CCFF"/>
</linearGradient>
</defs>
</svg>
