<svg width="663" height="100" viewBox="0 0 663 100" fill="none" xmlns="http://www.w3.org/2000/svg">
<path d="M211.308 59.6826C210.906 62.806 210.102 65.682 208.896 68.3105C207.69 70.9082 206.113 73.1502 204.165 75.0366C202.247 76.8921 199.959 78.3455 197.299 79.397C194.671 80.4175 191.733 80.9277 188.486 80.9277C185.703 80.9277 183.167 80.5412 180.878 79.7681C178.621 78.964 176.595 77.8662 174.802 76.4746C173.039 75.083 171.508 73.444 170.209 71.5576C168.942 69.6712 167.875 67.6147 167.009 65.3882C166.174 63.1616 165.54 60.8268 165.107 58.3838C164.705 55.9408 164.488 53.4668 164.458 50.9619V41.5454C164.488 39.0405 164.705 36.5666 165.107 34.1235C165.54 31.6805 166.174 29.3457 167.009 27.1191C167.875 24.8926 168.942 22.8361 170.209 20.9497C171.508 19.0324 173.039 17.3779 174.802 15.9863C176.595 14.5947 178.621 13.5124 180.878 12.7393C183.136 11.9352 185.672 11.5332 188.486 11.5332C191.857 11.5332 194.872 12.0589 197.531 13.1104C200.191 14.1309 202.479 15.5998 204.396 17.5171C206.314 19.4035 207.845 21.6764 208.989 24.3359C210.164 26.9954 210.937 29.9333 211.308 33.1494H202.727C202.448 31.1084 201.969 29.2065 201.289 27.4438C200.608 25.6812 199.696 24.1349 198.552 22.8052C197.408 21.4754 196 20.4395 194.331 19.6973C192.692 18.9242 190.743 18.5376 188.486 18.5376C186.445 18.5376 184.636 18.8778 183.059 19.5581C181.512 20.2075 180.167 21.1043 179.023 22.2485C177.91 23.3927 176.966 24.7225 176.193 26.2378C175.451 27.7531 174.848 29.3612 174.384 31.062C173.92 32.7629 173.58 34.5101 173.364 36.3037C173.178 38.0664 173.085 39.7827 173.085 41.4526V50.9619C173.085 52.6318 173.178 54.3636 173.364 56.1572C173.58 57.9199 173.92 59.6672 174.384 61.3989C174.848 63.0998 175.451 64.7078 176.193 66.2231C176.936 67.7384 177.879 69.0837 179.023 70.2588C180.167 71.403 181.512 72.3153 183.059 72.9956C184.605 73.645 186.414 73.9697 188.486 73.9697C190.743 73.9697 192.692 73.6141 194.331 72.9028C196 72.1916 197.408 71.202 198.552 69.9341C199.696 68.6353 200.608 67.12 201.289 65.3882C201.969 63.6255 202.448 61.7236 202.727 59.6826H211.308Z" fill="#162A41"/>
<path d="M228.503 37.2778C230.296 34.6493 232.507 32.6082 235.136 31.1548C237.765 29.6704 240.718 28.9128 243.996 28.8818C246.624 28.8818 249.006 29.2684 251.139 30.0415C253.304 30.7837 255.144 31.9588 256.659 33.5669C258.175 35.175 259.334 37.216 260.138 39.6899C260.973 42.133 261.391 45.0399 261.391 48.4106V80H252.809V48.3179C252.809 44.2049 251.82 41.1434 249.841 39.1333C247.892 37.1232 245.094 36.1336 241.445 36.1646C238.692 36.1646 236.187 36.8449 233.93 38.2056C231.703 39.5353 229.894 41.3135 228.503 43.54V80H219.921V8.75H228.503V37.2778Z" fill="#162A41"/>
<path d="M304.258 80C303.918 79.3506 303.639 78.5465 303.423 77.5879C303.237 76.5983 303.098 75.5778 303.005 74.5264C302.139 75.3923 301.165 76.2118 300.083 76.9849C299.031 77.758 297.856 78.4383 296.558 79.0259C295.29 79.6134 293.929 80.0773 292.475 80.4175C291.022 80.7577 289.476 80.9277 287.837 80.9277C285.177 80.9277 282.765 80.5412 280.6 79.7681C278.467 78.995 276.642 77.959 275.127 76.6602C273.642 75.3304 272.483 73.7687 271.648 71.9751C270.844 70.1506 270.442 68.1868 270.442 66.084C270.442 63.3317 270.983 60.9196 272.065 58.8477C273.179 56.7757 274.74 55.0594 276.75 53.6987C278.76 52.3071 281.173 51.2712 283.987 50.5908C286.832 49.9105 290.002 49.5703 293.496 49.5703H302.866V45.6274C302.866 44.1121 302.588 42.7515 302.031 41.5454C301.475 40.3394 300.686 39.3188 299.665 38.4839C298.645 37.618 297.392 36.9531 295.908 36.4893C294.455 36.0254 292.816 35.7935 290.991 35.7935C289.29 35.7935 287.76 36.0099 286.399 36.4429C285.069 36.8758 283.94 37.4479 283.013 38.1592C282.085 38.8704 281.358 39.7209 280.832 40.7104C280.338 41.6691 280.09 42.6742 280.09 43.7256H271.462C271.493 41.901 271.957 40.1074 272.854 38.3447C273.782 36.582 275.096 35.0049 276.797 33.6133C278.529 32.1908 280.616 31.0465 283.059 30.1807C285.533 29.3148 288.332 28.8818 291.455 28.8818C294.3 28.8818 296.944 29.2375 299.387 29.9487C301.83 30.6291 303.933 31.6805 305.696 33.103C307.489 34.4946 308.896 36.2419 309.917 38.3447C310.937 40.4476 311.448 42.9061 311.448 45.7202V69.0527C311.448 70.7227 311.602 72.5008 311.912 74.3872C312.221 76.2427 312.654 77.8662 313.21 79.2578V80H304.258ZM289.089 73.4595C290.759 73.4595 292.321 73.243 293.774 72.8101C295.228 72.3771 296.542 71.805 297.717 71.0938C298.923 70.3825 299.959 69.5784 300.825 68.6816C301.691 67.7539 302.371 66.7952 302.866 65.8057V55.647H294.888C289.878 55.647 285.981 56.3892 283.198 57.8735C280.415 59.3579 279.023 61.6927 279.023 64.8779C279.023 66.1149 279.224 67.2591 279.626 68.3105C280.059 69.362 280.693 70.2743 281.528 71.0474C282.363 71.7896 283.415 72.3771 284.683 72.8101C285.95 73.243 287.419 73.4595 289.089 73.4595Z" fill="#162A41"/>
<path d="M330.333 29.8096L330.936 37.2314C332.76 34.6338 335.002 32.6082 337.662 31.1548C340.321 29.6704 343.29 28.9128 346.568 28.8818C349.197 28.8818 351.578 29.2529 353.712 29.9951C355.876 30.7373 357.716 31.897 359.232 33.4741C360.747 35.0513 361.907 37.0614 362.711 39.5044C363.546 41.9165 363.963 44.7925 363.963 48.1323V80H355.381V48.3179C355.381 46.0913 355.134 44.2049 354.639 42.6587C354.144 41.1125 353.402 39.86 352.413 38.9014C351.454 37.9427 350.263 37.2469 348.841 36.814C347.449 36.381 345.841 36.1646 344.017 36.1646C341.141 36.1646 338.605 36.8913 336.409 38.3447C334.245 39.7673 332.513 41.6536 331.214 44.0039V80H322.632V29.8096H330.333Z" fill="#162A41"/>
<path d="M372.411 54.4873C372.411 50.7454 372.859 47.3128 373.756 44.1895C374.684 41.0352 376.014 38.3293 377.745 36.0718C379.477 33.8143 381.58 32.0516 384.054 30.7837C386.528 29.5158 389.327 28.8818 392.45 28.8818C395.542 28.8818 398.248 29.4385 400.568 30.5518C402.918 31.6341 404.913 33.2113 406.552 35.2832L406.969 29.8096H414.762V78.9331C414.762 82.242 414.236 85.1798 413.185 87.7466C412.164 90.3133 410.711 92.4935 408.825 94.2871C406.969 96.0807 404.742 97.4414 402.145 98.3691C399.547 99.2969 396.671 99.7607 393.517 99.7607C392.218 99.7607 390.734 99.6061 389.064 99.2969C387.394 99.0186 385.693 98.5392 383.961 97.8589C382.26 97.2095 380.606 96.3281 378.998 95.2148C377.421 94.1016 376.06 92.7254 374.916 91.0864L379.369 85.9375C380.42 87.2054 381.503 88.2723 382.616 89.1382C383.729 90.035 384.858 90.7463 386.002 91.272C387.146 91.7977 388.291 92.1688 389.435 92.3853C390.579 92.6327 391.723 92.7563 392.867 92.7563C394.908 92.7563 396.749 92.4626 398.387 91.875C400.026 91.2874 401.418 90.4215 402.562 89.2773C403.737 88.1641 404.634 86.7725 405.253 85.1025C405.871 83.4326 406.18 81.5153 406.18 79.3506V75.0366C404.511 76.9539 402.531 78.4229 400.243 79.4434C397.985 80.4329 395.357 80.9277 392.357 80.9277C389.296 80.9277 386.528 80.2783 384.054 78.9795C381.58 77.6807 379.477 75.887 377.745 73.5986C376.045 71.3102 374.73 68.6198 373.803 65.5273C372.875 62.404 372.411 59.0487 372.411 55.4614V54.4873ZM380.992 55.4614C380.992 57.9045 381.24 60.2238 381.735 62.4194C382.26 64.6151 383.064 66.5479 384.147 68.2178C385.26 69.8877 386.667 71.2174 388.368 72.207C390.069 73.1657 392.11 73.645 394.491 73.645C395.975 73.645 397.305 73.4749 398.48 73.1348C399.686 72.7637 400.753 72.2534 401.681 71.604C402.64 70.9546 403.49 70.1815 404.232 69.2847C404.974 68.3879 405.624 67.3983 406.18 66.3159V43.3081C405.624 42.2567 404.974 41.298 404.232 40.4321C403.49 39.5662 402.64 38.8241 401.681 38.2056C400.722 37.5562 399.655 37.0614 398.48 36.7212C397.305 36.3501 396.006 36.1646 394.584 36.1646C392.172 36.1646 390.1 36.6593 388.368 37.6489C386.667 38.6385 385.26 39.9837 384.147 41.6846C383.064 43.3545 382.26 45.3027 381.735 47.5293C381.24 49.7249 380.992 52.0443 380.992 54.4873V55.4614Z" fill="#162A41"/>
<path d="M447.517 80.9277C443.991 80.9277 440.744 80.3247 437.775 79.1187C434.838 77.9126 432.317 76.2272 430.214 74.0625C428.111 71.8978 426.473 69.3311 425.297 66.3623C424.122 63.3936 423.535 60.1619 423.535 56.6675V54.7192C423.535 50.6681 424.184 47.05 425.483 43.8647C426.782 40.6486 428.498 37.9427 430.632 35.7471C432.797 33.5205 435.24 31.8197 437.961 30.6445C440.713 29.4694 443.527 28.8818 446.403 28.8818C450.021 28.8818 453.176 29.5158 455.866 30.7837C458.588 32.0207 460.845 33.7524 462.639 35.979C464.432 38.1746 465.762 40.7723 466.628 43.772C467.525 46.7716 467.973 50.0187 467.973 53.5132V57.3633H432.116C432.209 59.6517 432.642 61.8009 433.415 63.811C434.219 65.8211 435.301 67.5838 436.662 69.0991C438.054 70.5835 439.708 71.7586 441.625 72.6245C443.543 73.4904 445.661 73.9233 447.98 73.9233C451.042 73.9233 453.763 73.3048 456.145 72.0679C458.526 70.8309 460.505 69.1919 462.082 67.1509L467.324 71.2329C466.489 72.5008 465.437 73.7223 464.169 74.8975C462.932 76.0417 461.494 77.0622 459.855 77.959C458.216 78.8558 456.361 79.5671 454.289 80.0928C452.217 80.6494 449.96 80.9277 447.517 80.9277ZM446.403 35.9326C444.672 35.9326 443.033 36.2573 441.486 36.9067C439.94 37.5252 438.548 38.453 437.312 39.6899C436.075 40.896 435.023 42.3958 434.157 44.1895C433.322 45.9521 432.735 47.9932 432.395 50.3125H459.392V49.6631C459.299 47.9932 458.974 46.3387 458.417 44.6997C457.892 43.0607 457.103 41.5918 456.052 40.293C455 38.9941 453.671 37.9427 452.062 37.1387C450.485 36.3346 448.599 35.9326 446.403 35.9326Z" fill="#162A41"/>
<path d="M509.051 66.687C509.051 65.6665 508.85 64.7542 508.448 63.9502C508.046 63.1152 507.366 62.3576 506.407 61.6772C505.449 60.9969 504.181 60.3784 502.604 59.8218C501.027 59.2342 499.063 58.7085 496.713 58.2446C493.837 57.6571 491.208 56.9458 488.827 56.1108C486.477 55.2759 484.451 54.2863 482.75 53.1421C481.08 51.967 479.781 50.6063 478.854 49.0601C477.926 47.4829 477.462 45.6584 477.462 43.5864C477.462 41.5454 477.941 39.6436 478.9 37.8809C479.859 36.0872 481.204 34.5256 482.936 33.1958C484.668 31.866 486.724 30.8146 489.105 30.0415C491.517 29.2684 494.161 28.8818 497.037 28.8818C500.13 28.8818 502.913 29.2839 505.387 30.0879C507.861 30.8919 509.964 32.0052 511.695 33.4277C513.427 34.8503 514.757 36.5202 515.685 38.4375C516.643 40.3239 517.123 42.3649 517.123 44.5605H508.541C508.541 43.4782 508.263 42.4268 507.706 41.4062C507.15 40.3548 506.376 39.4271 505.387 38.623C504.397 37.819 503.191 37.1696 501.769 36.6748C500.377 36.18 498.8 35.9326 497.037 35.9326C495.213 35.9326 493.605 36.1336 492.213 36.5356C490.852 36.9377 489.708 37.4788 488.78 38.1592C487.884 38.8395 487.203 39.6281 486.739 40.5249C486.276 41.4217 486.044 42.3494 486.044 43.3081C486.044 44.2977 486.229 45.179 486.6 45.9521C486.971 46.7253 487.605 47.4211 488.502 48.0396C489.43 48.658 490.651 49.2147 492.167 49.7095C493.713 50.2043 495.661 50.6836 498.011 51.1475C501.104 51.7969 503.872 52.5545 506.315 53.4204C508.758 54.2554 510.814 55.2759 512.484 56.4819C514.154 57.6571 515.422 59.0332 516.288 60.6104C517.185 62.1875 517.633 64.012 517.633 66.084C517.633 68.3105 517.123 70.3361 516.102 72.1606C515.113 73.9852 513.721 75.5469 511.927 76.8457C510.134 78.1445 507.985 79.1496 505.48 79.8608C502.975 80.5721 500.238 80.9277 497.269 80.9277C493.868 80.9277 490.837 80.4793 488.177 79.5825C485.518 78.6548 483.26 77.4487 481.405 75.9644C479.58 74.4491 478.173 72.7018 477.184 70.7227C476.225 68.7435 475.746 66.687 475.746 64.5532H484.327C484.451 66.3159 484.915 67.8003 485.719 69.0063C486.554 70.2124 487.574 71.1865 488.78 71.9287C490.017 72.6709 491.378 73.1966 492.862 73.5059C494.347 73.8151 495.816 73.9697 497.269 73.9697C500.887 73.9697 503.748 73.3048 505.851 71.9751C507.954 70.6453 509.021 68.8826 509.051 66.687Z" fill="#162A41"/>
<path d="M549.228 80.9277C545.703 80.9277 542.455 80.3247 539.487 79.1187C536.549 77.9126 534.029 76.2272 531.926 74.0625C529.823 71.8978 528.184 69.3311 527.009 66.3623C525.834 63.3936 525.246 60.1619 525.246 56.6675V54.7192C525.246 50.6681 525.895 47.05 527.194 43.8647C528.493 40.6486 530.209 37.9427 532.343 35.7471C534.508 33.5205 536.951 31.8197 539.672 30.6445C542.425 29.4694 545.239 28.8818 548.115 28.8818C551.733 28.8818 554.887 29.5158 557.578 30.7837C560.299 32.0207 562.556 33.7524 564.35 35.979C566.144 38.1746 567.473 40.7723 568.339 43.772C569.236 46.7716 569.684 50.0187 569.684 53.5132V57.3633H533.828C533.92 59.6517 534.353 61.8009 535.126 63.811C535.93 65.8211 537.013 67.5838 538.373 69.0991C539.765 70.5835 541.419 71.7586 543.337 72.6245C545.254 73.4904 547.372 73.9233 549.692 73.9233C552.753 73.9233 555.475 73.3048 557.856 72.0679C560.237 70.8309 562.216 69.1919 563.793 67.1509L569.035 71.2329C568.2 72.5008 567.149 73.7223 565.881 74.8975C564.644 76.0417 563.206 77.0622 561.567 77.959C559.928 78.8558 558.072 79.5671 556 80.0928C553.928 80.6494 551.671 80.9277 549.228 80.9277ZM548.115 35.9326C546.383 35.9326 544.744 36.2573 543.198 36.9067C541.651 37.5252 540.26 38.453 539.023 39.6899C537.786 40.896 536.734 42.3958 535.869 44.1895C535.034 45.9521 534.446 47.9932 534.106 50.3125H561.103V49.6631C561.01 47.9932 560.685 46.3387 560.129 44.6997C559.603 43.0607 558.815 41.5918 557.763 40.293C556.712 38.9941 555.382 37.9427 553.774 37.1387C552.197 36.3346 550.31 35.9326 548.115 35.9326Z" fill="#162A41"/>
<path d="M594.728 17.6562V29.8096H613.839V36.4429H594.728V63.7183C594.728 65.6665 594.976 67.2746 595.47 68.5425C595.965 69.8104 596.645 70.8309 597.511 71.604C598.377 72.3462 599.367 72.8719 600.48 73.1812C601.624 73.4904 602.83 73.645 604.098 73.645C605.026 73.645 605.985 73.5986 606.974 73.5059C607.964 73.3822 608.922 73.243 609.85 73.0884C610.809 72.9338 611.69 72.7791 612.494 72.6245C613.329 72.439 614.01 72.2843 614.535 72.1606L615.741 78.2373C615.03 78.6702 614.164 79.0568 613.144 79.397C612.123 79.7062 611.01 79.9691 609.804 80.1855C608.598 80.4329 607.314 80.6185 605.954 80.7422C604.624 80.8659 603.294 80.9277 601.964 80.9277C599.738 80.9277 597.65 80.6185 595.702 80C593.785 79.3506 592.115 78.3455 590.692 76.9849C589.27 75.5933 588.141 73.8151 587.306 71.6504C586.502 69.4548 586.1 66.8107 586.1 63.7183V36.4429H572.926V29.8096H586.1V17.6562H594.728Z" fill="#162A41"/>
<path d="M654.118 66.687C654.118 65.6665 653.917 64.7542 653.515 63.9502C653.113 63.1152 652.433 62.3576 651.474 61.6772C650.516 60.9969 649.248 60.3784 647.671 59.8218C646.094 59.2342 644.13 58.7085 641.78 58.2446C638.904 57.6571 636.275 56.9458 633.894 56.1108C631.544 55.2759 629.518 54.2863 627.817 53.1421C626.147 51.967 624.848 50.6063 623.921 49.0601C622.993 47.4829 622.529 45.6584 622.529 43.5864C622.529 41.5454 623.008 39.6436 623.967 37.8809C624.926 36.0872 626.271 34.5256 628.003 33.1958C629.735 31.866 631.791 30.8146 634.172 30.0415C636.584 29.2684 639.228 28.8818 642.104 28.8818C645.197 28.8818 647.98 29.2839 650.454 30.0879C652.928 30.8919 655.031 32.0052 656.763 33.4277C658.494 34.8503 659.824 36.5202 660.752 38.4375C661.71 40.3239 662.19 42.3649 662.19 44.5605H653.608C653.608 43.4782 653.33 42.4268 652.773 41.4062C652.217 40.3548 651.444 39.4271 650.454 38.623C649.464 37.819 648.258 37.1696 646.836 36.6748C645.444 36.18 643.867 35.9326 642.104 35.9326C640.28 35.9326 638.672 36.1336 637.28 36.5356C635.919 36.9377 634.775 37.4788 633.847 38.1592C632.951 38.8395 632.27 39.6281 631.806 40.5249C631.343 41.4217 631.111 42.3494 631.111 43.3081C631.111 44.2977 631.296 45.179 631.667 45.9521C632.038 46.7253 632.672 47.4211 633.569 48.0396C634.497 48.658 635.718 49.2147 637.234 49.7095C638.78 50.2043 640.728 50.6836 643.078 51.1475C646.171 51.7969 648.939 52.5545 651.382 53.4204C653.825 54.2554 655.881 55.2759 657.551 56.4819C659.221 57.6571 660.489 59.0332 661.355 60.6104C662.252 62.1875 662.7 64.012 662.7 66.084C662.7 68.3105 662.19 70.3361 661.169 72.1606C660.18 73.9852 658.788 75.5469 656.994 76.8457C655.201 78.1445 653.052 79.1496 650.547 79.8608C648.042 80.5721 645.305 80.9277 642.336 80.9277C638.935 80.9277 635.904 80.4793 633.244 79.5825C630.585 78.6548 628.327 77.4487 626.472 75.9644C624.647 74.4491 623.24 72.7018 622.251 70.7227C621.292 68.7435 620.813 66.687 620.813 64.5532H629.394C629.518 66.3159 629.982 67.8003 630.786 69.0063C631.621 70.2124 632.641 71.1865 633.847 71.9287C635.084 72.6709 636.445 73.1966 637.93 73.5059C639.414 73.8151 640.883 73.9697 642.336 73.9697C645.954 73.9697 648.815 73.3048 650.918 71.9751C653.021 70.6453 654.088 68.8826 654.118 66.687Z" fill="#162A41"/>
<path d="M68.997 45.998C68.997 20.594 48.403 0 22.999 0H0C0 25.404 20.594 45.998 45.998 45.998H68.997Z" fill="url(#paint0_linear)"/>
<path d="M68.997 45.998C68.997 71.402 48.403 91.9958 22.999 91.9958H13.7994C13.7994 66.5919 34.3934 45.9979 59.7974 45.9979L68.997 45.998Z" fill="url(#paint1_linear)"/>
<path d="M61.6372 45.998C61.6372 20.594 82.2312 0 107.635 0H130.634C130.634 25.404 110.04 45.998 84.6362 45.998H61.6372Z" fill="url(#paint2_linear)"/>
<path d="M61.6372 45.998C61.6372 71.402 82.2312 91.9959 107.635 91.9959H116.835C116.835 66.592 96.2408 45.998 70.8368 45.998L61.6372 45.998Z" fill="url(#paint3_linear)"/>
<path d="M65.317 27.9402C67.6858 33.4842 68.9969 39.5879 68.9969 45.9978C68.9969 52.4078 67.6858 58.5115 65.317 64.0554C62.9483 58.5115 61.6372 52.4078 61.6372 45.9978C61.6372 39.5879 62.9483 33.4842 65.317 27.9402Z" fill="#0088CC"/>
<defs>
<linearGradient id="paint0_linear" x1="69" y1="92" x2="9.60794e-07" y2="-7.20596e-07" gradientUnits="userSpaceOnUse">
<stop stop-color="#001B33"/>
<stop offset="1" stop-color="#006DCC"/>
</linearGradient>
<linearGradient id="paint1_linear" x1="69" y1="92" x2="9.60794e-07" y2="-7.20596e-07" gradientUnits="userSpaceOnUse">
<stop stop-color="#001B33"/>
<stop offset="1" stop-color="#006DCC"/>
</linearGradient>
<linearGradient id="paint2_linear" x1="62" y1="92" x2="131" y2="6.93804e-06" gradientUnits="userSpaceOnUse">
<stop stop-color="#0089D6"/>
<stop offset="1" stop-color="#66CCFF"/>
</linearGradient>
<linearGradient id="paint3_linear" x1="62" y1="92" x2="131" y2="6.93804e-06" gradientUnits="userSpaceOnUse">
<stop stop-color="#0089D6"/>
<stop offset="1" stop-color="#66CCFF"/>
</linearGradient>
</defs>
</svg>
